<svg xmlns="http://www.w3.org/2000/svg" width="100" height="100" viewBox="0 0 100 100" fill="none">
  <defs>
    <linearGradient id="gDelivery" x1="58" y1="50" x2="90" y2="92" gradientUnits="userSpaceOnUse">
      <stop stop-color="#6090C0"/>
      <stop offset="0.55" stop-color="#A86090"/>
      <stop offset="1" stop-color="#C04878"/>
    </linearGradient>
  </defs>
  <g stroke="#484848" stroke-width="3.2" stroke-linecap="round" stroke-linejoin="round" fill="none">
    <path d="M20 42L50 26L80 42L50 58Z"/>
    <path d="M20 42V68L50 84V58"/>
    <path d="M80 42V68L50 84"/>
    <path d="M50 26V58"/>
    <path d="M35 50L50 58L65 50"/>
  </g>
  <path fill="url(#gDelivery)" d="M74 50C66.3 50 60 56.3 60 64C60 74.5 74 90 74 90C74 90 88 74.5 88 64C88 56.3 81.7 50 74 50Z"/>
  <circle cx="74" cy="64" r="5" fill="#FFFFFF"/>
</svg>